<svg xmlns="http://www.w3.org/2000/svg" xmlns:xlink="http://www.w3.org/1999/xlink" fill="none" viewBox="0 0 24 24">
  <path fill="url(#a)" fill-rule="evenodd" d="M16 3.242H8a5 5 0 0 0-5 5v8a5 5 0 0 0 5 5h8a5 5 0 0 0 5-5v-8a5 5 0 0 0-5-5m3.25 13a3.26 3.26 0 0 1-3.25 3.25H8a3.26 3.26 0 0 1-3.25-3.25v-8A3.26 3.26 0 0 1 8 4.992h8a3.26 3.26 0 0 1 3.25 3.25zm-2.5-7.75a1 1 0 1 0 0-2 1 1 0 0 0 0 2M12 7.742a4.5 4.5 0 1 0 4.5 4.5 4.49 4.49 0 0 0-4.5-4.5m-2.75 4.5a2.75 2.75 0 1 0 5.5 0 2.75 2.75 0 0 0-5.5 0" clip-rule="evenodd"/>
  <defs>
    <linearGradient id="a" x1="15.713" x2="27.29" y1="-19.821" y2="31.521" gradientUnits="userSpaceOnUse">
      <stop/>
      <stop offset="1" stop-opacity="0"/>
    </linearGradient>
  </defs>
</svg>
